<?xml version="1.0" standalone="no"?>
<!DOCTYPE svg PUBLIC "-//W3C//DTD SVG 20010904//EN"
 "http://www.w3.org/TR/2001/REC-SVG-20010904/DTD/svg10.dtd">
<svg version="1.0" xmlns="http://www.w3.org/2000/svg"
 width="200.000000pt" height="200.000000pt" viewBox="0 0 200.000000 200.000000"
 preserveAspectRatio="xMidYMid meet">

<g transform="translate(0.000000,200.000000) scale(0.100000,-0.100000)"
fill="#000000" stroke="none">
<path d="M556 1884 c-9 -8 -16 -20 -16 -26 0 -5 130 -143 289 -306 158 -164
343 -354 411 -424 l122 -128 -122 -127 c-68 -71 -253 -261 -411 -425 -159
-163 -289 -301 -289 -306 0 -15 29 -42 44 -42 13 0 851 856 869 886 4 8 4 20
0 28 -18 30 -857 886 -869 886 -7 0 -20 -7 -28 -16z"/>
</g>
</svg>
